<svg width="72" height="50" viewBox="0 0 72 50" fill="none" xmlns="http://www.w3.org/2000/svg">
<path d="M65.25 0H6.75C4.95979 0 3.2429 0.711158 1.97703 1.97703C0.711159 3.2429 0 4.95979 0 6.75L0 42.75C0 44.5402 0.711159 46.2571 1.97703 47.523C3.2429 48.7888 4.95979 49.5 6.75 49.5H65.25C67.0402 49.5 68.7571 48.7888 70.023 47.523C71.2888 46.2571 72 44.5402 72 42.75V6.75C72 4.95979 71.2888 3.2429 70.023 1.97703C68.7571 0.711158 67.0402 0 65.25 0ZM48.375 28.125H39.375V37.125H32.625V28.125H23.625V21.375H32.625V12.375H39.375V21.375H48.375V28.125Z" fill="#10375C"/>
</svg>
